HIERARCHY
ROOT Spine
{
    OFFSET 0.0 0.0 -0.0
    CHANNELS 6 Xposition Yposition Zposition Zrotation Xrotation Yrotation
    JOINT ShoulderCenter
    {
        OFFSET 0.0 31.740219116210938 0.0
        CHANNELS 3 Zrotation Xrotation Yrotation
        JOINT LeftShoulder
        {
            OFFSET 12.334678649902344 0.0 0.0
            CHANNELS 3 Zrotation Xrotation Yrotation
            JOINT LeftElbow
            {
                OFFSET 28.573638916015625 0.0 0.0
                CHANNELS 3 Zrotation Xrotation Yrotation
                JOINT LeftHand
                {
                    OFFSET 31.148067474365234 0.0 0.0
                    CHANNELS 3 Zrotation Xrotation Yrotation
                    End Site
                    {
                        OFFSET 12.459226608276367 0.0 0.0
                    }
                }
            }
        }
        JOINT RightShoulder
        {
            OFFSET -12.334678649902344 0.0 0.0
            CHANNELS 3 Zrotation Xrotation Yrotation
            JOINT RightElbow
            {
                OFFSET -28.573638916015625 0.0 0.0
                CHANNELS 3 Zrotation Xrotation Yrotation
                JOINT RightHand
                {
                    OFFSET -31.148067474365234 0.0 0.0
                    CHANNELS 3 Zrotation Xrotation Yrotation
                    End Site
                    {
                        OFFSET -12.459226608276367 0.0 0.0
                    }
                }
            }
        }
        End Site
        {
            OFFSET 0.0 12.696088790893555 0.0
        }
    }
    JOINT LeftHip
    {
        OFFSET 15.433502923812371 -15.433502923812371 0.0
        CHANNELS 3 Zrotation Xrotation Yrotation
        JOINT LeftKnee
        {
            OFFSET 0.0 -34.82246017456055 0.0
            CHANNELS 3 Zrotation Xrotation Yrotation
            JOINT LeftFoot
            {
                OFFSET 0.0 -39.95048522949219 0.0
                CHANNELS 3 Zrotation Xrotation Yrotation
                End Site
                {
                    OFFSET 0.0 0.0 15.980195999145508
                }
            }
        }
    }
    JOINT RightHip
    {
        OFFSET -15.433502923812371 -15.433502923812371 0.0
        CHANNELS 3 Zrotation Xrotation Yrotation
        JOINT RightKnee
        {
            OFFSET 0.0 -34.82246017456055 0.0
            CHANNELS 3 Zrotation Xrotation Yrotation
            JOINT RightFoot
            {
                OFFSET 0.0 -39.95048522949219 0.0
                CHANNELS 3 Zrotation Xrotation Yrotation
                End Site
                {
                    OFFSET 0.0 0.0 15.980195999145508
                }
            }
        }
    }
}
MOTION
Frames: 9
Frame Time: 0.03333333333333333
86.4000015258789 18.700000762939453 0.30000001192092896 33.38147665356584 -12.765290030128192 -82.12641436529393 -5.93355143194672e-07 1.1180265613354388e-06 6.018986773952325 106.26289404329611 14.78052390841031 167.268355061688 1.1095348829672797e-06 8.794700229812378e-07 54.13401321009864 0.0 0.0 6.3611093629270335e-15 -96.95547798296154 13.26921427311556 176.40993128748255 3.5280410491235597e-06 -1.021339218369194e-06 -53.24778177779856 -6.361109362927035e-15 0.0 0.0 -134.43231686654033 -77.16877615969089 -70.37093500418814 78.01023780187494 42.716061750682236 -110.87351764584885 -2.385416011097637e-15 -3.975693351829395e-16 -2.6835930124848418e-15 -9.747070947217304 -36.926774058181394 19.411652188103126 -5.312193789169167 6.974952566217504 19.682662934115303 0.0 0.0 2.923144066984718e-15
87.5999984741211 18.700000762939453 0.5 31.595431001671336 -11.624173554760652 -82.66130232110088 -3.0359573853428266e-06 -2.737000590963544e-07 5.0594313125384955 104.74983717245384 15.665339013626125 166.29854947275123 3.911855431517127e-06 -8.404107501156182e-07 50.700257661390516 -6.3611093629270335e-15 0.0 0.0 -96.97548318365662 12.138048839138882 177.91297042638948 3.379646097297337e-06 6.4422161449924685e-06 -52.54185772027519 3.1805546814635164e-15 9.54166404439055e-15 3.1805546814635164e-15 -105.33910300072714 -80.3344803327023 -43.41066895225207 93.28342434891593 42.00556928121071 -136.73823128813365 -1.987846675914698e-15 0.0 0.0 -8.123156531168037 -35.71806816207348 21.20340679555074 -5.04955337716482 6.641322184909986 17.28220285534739 0.0 0.0 -1.4823434782504526e-15
88.4000015258789 18.399999618530273 0.800000011920929 28.786623018615323 -10.54762848564152 -82.22464403526868 -2.7531375981646265e-07 1.6968835916229766e-07 2.998315635361961 102.54834197499316 15.457437382150532 166.01455833600156 4.643894494748261e-08 3.1996265171883525e-07 47.54442050264007 0.0 0.0 0.0 -98.29523245351453 10.820961692329323 -178.88587271420613 3.8009711832563226e-06 4.23557880478952e-06 -52.71733229395937 3.1805546814635168e-15 2.648343778830095e-31 9.54166404439055e-15 -45.25345438560589 -72.72817136412415 8.595013351536734 88.81041241144217 46.51348773626361 -140.30202964003055 1.1927080055488188e-15 0.0 0.0 -6.60718341172964 -34.237058501535266 20.635523105720768 -4.954039949867477 8.792924950569127 20.998352296486516 -9.93923337957349e-17 -6.667735649215175e-35 7.687375817013871e-17
89.0 17.5 1.2000000476837158 26.075364216368058 -8.870767216248929 -81.28128291869119 1.2677967872037765e-06 -1.4581881001193634e-06 1.217579074866361 100.60465395766046 13.627044575580603 165.58469759100348 1.7677659755546344e-06 -5.127465053081248e-06 46.025558396304035 0.0 6.3611093629270335e-15 0.0 -99.87637737437416 10.560621505906708 -175.57717247622682 -9.994297584291385e-07 1.4263796077107433e-06 -52.585749395477166 3.1805546814635168e-15 0.0 0.0 -30.522470560513323 -58.363400298283516 9.362911779550664 58.608911548793515 51.289731717351536 -112.61932466714241 -7.951386703658792e-16 -3.1805546814635168e-15 1.1927080055488188e-15 -4.678497483372304 -35.09518933928333 14.997941127830284 -5.567627824826475 14.546700259291129 33.31951330343207 -1.987846675914698e-16 -9.93923337957349e-17 1.5467931946961243e-15
89.5 16.5 1.600000023841858 24.368704546870855 -6.877123309323339 -80.03907465378839 -3.0491317122491436e-07 1.996272838442581e-06 -0.2067159965006264 98.8140423120745 10.945324203112444 165.80313069932598 2.1462638109803754e-07 3.991087303181111e-06 45.05596137820385 -3.531125038440127e-31 6.3611093629270335e-15 6.3611093629270335e-15 -101.5774359822368 10.497345829787122 -173.2618406390832 -1.080826597140204e-07 2.6879417500155005e-06 -51.81286241129377 3.1805546814635164e-15 -3.1805546814635164e-15 8.827812596100317e-32 -25.71990582664936 -47.245487793370195 0.5486943185627554 27.939867963656255 42.935411708898755 -75.98378950685404 -1.1927080055488186e-15 1.6552148617688095e-32 -1.5902773407317582e-15 -2.905580650433805 -36.61868727868798 9.111870602930317 -7.047966042171614 19.385115804641124 43.46827739885752 -3.280256535953292e-32 -3.975693351829396e-16 -9.454695752319283e-15
90.10000610351562 15.600000381469727 2.200000047683716 23.07967377880535 -4.698909018449321 -79.52188187184541 1.1893457012766254e-06 3.0775078004798654e-07 -0.48509716979192663 97.74488982326736 7.43288885974863 166.27907996038238 1.3485526809710222e-06 -3.2606556761179833e-06 44.8432194970323 0.0 0.0 0.0 -103.04248276366722 10.403824052273743 -172.24679253997266 -2.9967893402619912e-06 -8.435114579285531e-07 -50.51080777464186 0.0 6.3611093629270335e-15 0.0 -22.57667676520927 -39.86037624131087 -7.398226894944207 14.989889947650592 32.26094984453155 -53.704154284166755 3.975693351829396e-16 7.951386703658792e-16 -1.2921003393445538e-15 -0.6170432486403018 -37.6467875536574 6.817021568097384 -8.302367807740598 22.576968051210493 47.882319569950106 0.0 0.0 4.969616689786746e-16
90.9000015258789 15.000000953674316 2.8999998569488525 22.036228666302293 -2.3470928749502646 -80.84652525162844 9.278796262158648e-07 -1.9767172564088158e-06 -0.27977973886712654 97.23050304418592 5.247772009313399 166.1343203325236 7.173406143061466e-07 2.1537609123326355e-06 45.0671009862209 0.0 0.0 0.0 -103.59252172780492 8.261128900750379 -173.56798000796894 -2.9330877535841443e-06 5.341645206842831e-06 -48.3885489616135 6.3611093629270335e-15 6.3611093629270335e-15 -3.531125038440127e-31 -17.63150183576008 -35.314945376530744 -13.240704546896737 8.264817741060654 26.034181183504433 -42.008597376076615 0.0 0.0 -6.708982531212106e-15 2.6740821200246363 -38.51238193052745 6.635506254675005 -8.839830289829067 24.445725634106367 48.2749582994163 0.0 0.0 -6.8083748650078394e-15
91.69999694824219 14.699999809265137 3.5999999046325684 20.894686372228506 0.36166956014831236 -82.69209591928498 -3.2242194758890865e-08 1.0972594633919322e-06 -0.13413403546531905 97.37304337315085 3.8757226365476924 165.7637445880687 3.0706948854638023e-06 -3.6185766627044182e-06 44.672552675973954 -3.180554681463516e-15 0.0 0.0 -103.33303014209388 4.809264299996476 -175.79346328309194 -2.9313626145471093e-06 -4.157663857691752e-06 -46.67389474298526 -3.180554681463516e-15 0.0 0.0 -12.79218713621416 -32.9625886679682 -15.38613495567018 5.60524355277534 22.351158980603984 -36.88066282980344 -3.975693351829396e-16 -9.138165382681968e-33 2.6338968455869747e-15 5.978108521414354 -39.68645432505052 3.9985457553954658 -9.846782230151907 25.982481373203616 50.49636930037884 -5.344964657795114e-33 1.987846675914698e-16 3.0811623476677818e-15
92.9000015258789 14.59999942779541 4.400000095367432 20.661687200187128 2.345276993015504 -85.29057454573287 7.244529881161361e-07 9.516099722468788e-08 0.5593318166112498 97.18820249812657 3.8059944133071877 166.751613386498 -1.205013897203161e-06 9.035647618736994e-07 43.226650043083524 3.180554681463516e-15 -6.361109362927033e-15 -6.361109362927033e-15 -103.48890424422004 0.8165562115472313 -179.2005516072259 -6.403729704687181e-06 -2.471329123493978e-06 -45.80433413053648 -6.361109362927035e-15 0.0 0.0 -9.515861382627149 -32.52359667063008 -15.925479343161905 4.948549107879092 20.103874584699614 -34.44638726040937 -3.9756933518293955e-16 -2.5345477570834893e-32 7.305336533986514e-15 7.701157285736795 -43.23292379117717 -2.919157270631561 -11.64290069832845 29.95784879396999 56.92684755670344 2.385416011097637e-15 3.975693351829396e-16 2.7829853462805768e-15
